<?xml version="1.0" encoding="UTF-8"?>
<svg version="1.1" xmlns="http://www.w3.org/2000/svg" width="57" height="51">
<path d="M0 0 C18.81 0 37.62 0 57 0 C57 16.83 57 33.66 57 51 C38.19 51 19.38 51 0 51 C0 34.17 0 17.34 0 0 Z " fill="#1E7F1E" transform="translate(0,0)"/>
<path d="M0 0 C18.81 0 37.62 0 57 0 C57 16.83 57 33.66 57 51 C52.71 51 48.42 51 44 51 C45.32 50.01 46.64 49.02 48 48 C51.73290546 44.59646855 53.79826866 42.09766687 54.29052734 36.97900391 C54.35113327 32.30850019 54.35113327 32.30850019 54.37060547 27.63769531 C54.37497051 25.6385049 54.4119853 23.63947343 54.44921875 21.640625 C54.45308594 20.36960937 54.45695312 19.09859375 54.4609375 17.7890625 C54.47326416 16.05197021 54.47326416 16.05197021 54.48583984 14.27978516 C53.88059157 10.1939031 52.66679093 8.14076376 50 5 C43.56974581 0.80136353 36.9234021 1.52219525 29.5 1.5625 C27.54126953 1.5325293 27.54126953 1.5325293 25.54296875 1.50195312 C24.28097656 1.50259766 23.01898437 1.50324219 21.71875 1.50390625 C20.57341797 1.50205322 19.42808594 1.5002002 18.24804688 1.49829102 C13.26738019 2.26762881 10.2408332 4.41916309 7.15209961 8.35424805 C4.88652241 13.55705798 5.53101074 19.22745029 5.5625 24.8125 C5.54251953 26.05837891 5.52253906 27.30425781 5.50195312 28.58789062 C5.50554626 35.36095444 5.53622784 41.56278432 10 47 C12.475 48.98 12.475 48.98 15 51 C10.05 51 5.1 51 0 51 C0 34.17 0 17.34 0 0 Z " fill="#F1F7F1" transform="translate(0,0)"/>
<path d="M0 0 C0.66 0 1.32 0 2 0 C4.5640867 5.61215765 4.81475663 10.91812982 4 17 C2.41732907 20.29775655 0.09077776 22.17251342 -2.8125 24.375 C-7.6343982 25.7526852 -11.58418156 25.70790922 -16 23.5 C-16.66 23.005 -17.32 22.51 -18 22 C-18.33 23.32 -18.66 24.64 -19 26 C-19.99 26 -20.98 26 -22 26 C-21.125 20.125 -21.125 20.125 -20 19 C-19.54564709 16.78221797 -19.16572966 14.5570935 -18.79296875 12.32421875 C-17.75788004 9.29033804 -16.50362724 7.99527653 -14 6 C-11.0546875 4.8046875 -11.0546875 4.8046875 -7.875 3.875 C-3.50017115 2.68561432 -3.50017115 2.68561432 0 0 Z " fill="#298529" transform="translate(38,12)"/>
<path d="M0 0 C0.66 0 1.32 0 2 0 C4.5640867 5.61215765 4.81475663 10.91812982 4 17 C2.41732907 20.29775655 0.09077776 22.17251342 -2.8125 24.375 C-7.6343982 25.7526852 -11.58418156 25.70790922 -16 23.5 C-16.66 23.005 -17.32 22.51 -18 22 C-18.33 23.32 -18.66 24.64 -19 26 C-19.99 26 -20.98 26 -22 26 C-21.125 20.125 -21.125 20.125 -20 19 C-19.54564709 16.78221797 -19.16572966 14.5570935 -18.79296875 12.32421875 C-17.75788004 9.29033804 -16.50362724 7.99527653 -14 6 C-11.0546875 4.8046875 -11.0546875 4.8046875 -7.875 3.875 C-3.50017115 2.68561432 -3.50017115 2.68561432 0 0 Z M-6.96875 6.21484375 C-8.56714834 6.83268618 -10.18678605 7.39559535 -11.8125 7.9375 C-14.47640309 9.23139579 -15.56029407 10.42368413 -17 13 C-17 14.32 -17 15.64 -17 17 C-15.5410574 16.52269162 -14.08286504 16.04308958 -12.625 15.5625 C-11.81289063 15.29566406 -11.00078125 15.02882813 -10.1640625 14.75390625 C-7.98968201 14.04820271 -7.98968201 14.04820271 -6 13 C-11.14285714 18.57142857 -11.14285714 18.57142857 -15 19 C-15 19.66 -15 20.32 -15 21 C-11.67499006 23.21667329 -9.97763727 23.3503779 -6.07421875 22.72265625 C-2.12174288 21.34561664 0.1535068 18.68617277 2 15 C2.64608042 11.15488059 2.76553417 7.53106834 1 4 C-1.91924928 4 -4.26949079 5.16350185 -6.96875 6.21484375 Z " fill="#EAF3EA" transform="translate(38,12)"/>
<path d="M0 0 C0.99 0 1.98 0 3 0 C1.64908476 4.42117715 -0.1650145 6.443343 -4 9 C-6.3125 9.75 -6.3125 9.75 -8 10 C-8 9.01 -8 8.02 -8 7 C-6.34928604 5.97388051 -4.68029994 4.97691857 -3 4 C-2.46375 3.278125 -1.9275 2.55625 -1.375 1.8125 C-0.694375 0.9153125 -0.694375 0.9153125 0 0 Z " fill="#E1EEE1" transform="translate(39,27)"/>
<path d="M0 0 C0 0.66 0 1.32 0 2 C-0.804375 2.763125 -1.60875 3.52625 -2.4375 4.3125 C-5.07298537 7.07654563 -5.68186067 8.28837448 -6 12 C-6.66 11.67 -7.32 11.34 -8 11 C-7.51282051 4.66666667 -7.51282051 4.66666667 -5.125 1.5625 C-3 0 -3 0 0 0 Z " fill="#F6F9F6" transform="translate(27,18)"/>
<path d="M0 0 C-1.36983503 3.16115776 -1.9890638 3.9927092 -5 6 C-5.99 6 -6.98 6 -8 6 C-8.33 5.01 -8.66 4.02 -9 3 C-2.25 0 -2.25 0 0 0 Z " fill="#E3EFE3" transform="translate(32,25)"/>
</svg>
